<mxfile host="app.diagrams.net" agent="Mozilla/5.0 (Windows NT 10.0; Win64; x64) AppleWebKit/537.36 (KHTML, like Gecko) Chrome/129.0.0.0 Safari/537.36" version="24.7.16">
  <diagram name="PÃ¡gina-1" id="PkRnpata1NbnYZitjAo_">
    <mxGraphModel grid="1" page="1" gridSize="10" guides="1" tooltips="1" connect="1" arrows="1" fold="1" pageScale="1" pageWidth="827" pageHeight="1169" math="0" shadow="0">
      <root>
        <mxCell id="0" />
        <mxCell id="1" parent="0" />
        <mxCell id="tdtCitIDd2ccs7ZmJ2YD-23" style="rounded=0;orthogonalLoop=1;jettySize=auto;html=1;entryX=0;entryY=0.5;entryDx=0;entryDy=0;endArrow=none;endFill=0;" edge="1" parent="1" source="tdtCitIDd2ccs7ZmJ2YD-2" target="tdtCitIDd2ccs7ZmJ2YD-15">
          <mxGeometry relative="1" as="geometry" />
        </mxCell>
        <mxCell id="tdtCitIDd2ccs7ZmJ2YD-48" style="rounded=0;orthogonalLoop=1;jettySize=auto;html=1;entryX=0;entryY=1;entryDx=0;entryDy=0;endArrow=none;endFill=0;" edge="1" parent="1" source="tdtCitIDd2ccs7ZmJ2YD-2" target="tdtCitIDd2ccs7ZmJ2YD-47">
          <mxGeometry relative="1" as="geometry" />
        </mxCell>
        <mxCell id="tdtCitIDd2ccs7ZmJ2YD-2" value="Videojuego" style="whiteSpace=wrap;html=1;align=center;" vertex="1" parent="1">
          <mxGeometry x="-370" y="370" width="100" height="40" as="geometry" />
        </mxCell>
        <mxCell id="tdtCitIDd2ccs7ZmJ2YD-8" style="rounded=0;orthogonalLoop=1;jettySize=auto;html=1;entryX=0;entryY=0.5;entryDx=0;entryDy=0;endArrow=none;endFill=0;" edge="1" parent="1" source="tdtCitIDd2ccs7ZmJ2YD-3" target="tdtCitIDd2ccs7ZmJ2YD-2">
          <mxGeometry relative="1" as="geometry" />
        </mxCell>
        <mxCell id="tdtCitIDd2ccs7ZmJ2YD-3" value="Id" style="ellipse;whiteSpace=wrap;html=1;align=center;" vertex="1" parent="1">
          <mxGeometry x="-590" y="370" width="100" height="40" as="geometry" />
        </mxCell>
        <mxCell id="tdtCitIDd2ccs7ZmJ2YD-9" value="" style="rounded=0;orthogonalLoop=1;jettySize=auto;html=1;endArrow=none;endFill=0;" edge="1" parent="1" source="tdtCitIDd2ccs7ZmJ2YD-5" target="tdtCitIDd2ccs7ZmJ2YD-2">
          <mxGeometry relative="1" as="geometry" />
        </mxCell>
        <mxCell id="tdtCitIDd2ccs7ZmJ2YD-5" value="titulo" style="ellipse;whiteSpace=wrap;html=1;align=center;" vertex="1" parent="1">
          <mxGeometry x="-430" y="240" width="100" height="40" as="geometry" />
        </mxCell>
        <mxCell id="tdtCitIDd2ccs7ZmJ2YD-10" value="genero" style="ellipse;whiteSpace=wrap;html=1;align=center;" vertex="1" parent="1">
          <mxGeometry x="-310" y="240" width="100" height="40" as="geometry" />
        </mxCell>
        <mxCell id="tdtCitIDd2ccs7ZmJ2YD-11" style="rounded=0;orthogonalLoop=1;jettySize=auto;html=1;endArrow=none;endFill=0;entryX=0.5;entryY=0;entryDx=0;entryDy=0;" edge="1" parent="1" source="tdtCitIDd2ccs7ZmJ2YD-10" target="tdtCitIDd2ccs7ZmJ2YD-2">
          <mxGeometry relative="1" as="geometry">
            <mxPoint x="-310" y="380" as="targetPoint" />
          </mxGeometry>
        </mxCell>
        <mxCell id="tdtCitIDd2ccs7ZmJ2YD-19" style="edgeStyle=orthogonalEdgeStyle;rounded=0;orthogonalLoop=1;jettySize=auto;html=1;entryX=0.5;entryY=1;entryDx=0;entryDy=0;endArrow=none;endFill=0;" edge="1" parent="1" source="tdtCitIDd2ccs7ZmJ2YD-15" target="tdtCitIDd2ccs7ZmJ2YD-2">
          <mxGeometry relative="1" as="geometry">
            <Array as="points">
              <mxPoint x="-130" y="440" />
              <mxPoint x="-320" y="440" />
            </Array>
          </mxGeometry>
        </mxCell>
        <mxCell id="tdtCitIDd2ccs7ZmJ2YD-15" value="es_secuela_directa" style="shape=rhombus;perimeter=rhombusPerimeter;whiteSpace=wrap;html=1;align=center;" vertex="1" parent="1">
          <mxGeometry x="-190" y="360" width="140" height="60" as="geometry" />
        </mxCell>
        <mxCell id="tdtCitIDd2ccs7ZmJ2YD-21" value="(0:n)" style="text;strokeColor=none;fillColor=none;spacingLeft=4;spacingRight=4;overflow=hidden;rotatable=0;points=[[0,0.5],[1,0.5]];portConstraint=eastwest;fontSize=12;whiteSpace=wrap;html=1;" vertex="1" parent="1">
          <mxGeometry x="-320" y="410" width="40" height="30" as="geometry" />
        </mxCell>
        <mxCell id="tdtCitIDd2ccs7ZmJ2YD-24" value="(0:m)" style="text;strokeColor=none;fillColor=none;spacingLeft=4;spacingRight=4;overflow=hidden;rotatable=0;points=[[0,0.5],[1,0.5]];portConstraint=eastwest;fontSize=12;whiteSpace=wrap;html=1;" vertex="1" parent="1">
          <mxGeometry x="-220" y="390" width="40" height="30" as="geometry" />
        </mxCell>
        <mxCell id="tdtCitIDd2ccs7ZmJ2YD-27" style="rounded=0;orthogonalLoop=1;jettySize=auto;html=1;exitX=0.5;exitY=0;exitDx=0;exitDy=0;entryX=0.5;entryY=1;entryDx=0;entryDy=0;endArrow=none;endFill=0;" edge="1" parent="1" source="tdtCitIDd2ccs7ZmJ2YD-25" target="tdtCitIDd2ccs7ZmJ2YD-26">
          <mxGeometry relative="1" as="geometry" />
        </mxCell>
        <mxCell id="tdtCitIDd2ccs7ZmJ2YD-25" value="usuario" style="whiteSpace=wrap;html=1;align=center;" vertex="1" parent="1">
          <mxGeometry x="-480" y="890" width="100" height="40" as="geometry" />
        </mxCell>
        <mxCell id="tdtCitIDd2ccs7ZmJ2YD-28" style="rounded=0;orthogonalLoop=1;jettySize=auto;html=1;exitX=0.5;exitY=0;exitDx=0;exitDy=0;entryX=0.25;entryY=1;entryDx=0;entryDy=0;endArrow=none;endFill=0;" edge="1" parent="1" source="tdtCitIDd2ccs7ZmJ2YD-26" target="tdtCitIDd2ccs7ZmJ2YD-2">
          <mxGeometry relative="1" as="geometry" />
        </mxCell>
        <mxCell id="tdtCitIDd2ccs7ZmJ2YD-26" value="valora" style="shape=rhombus;perimeter=rhombusPerimeter;whiteSpace=wrap;html=1;align=center;" vertex="1" parent="1">
          <mxGeometry x="-500" y="740" width="140" height="60" as="geometry" />
        </mxCell>
        <mxCell id="tdtCitIDd2ccs7ZmJ2YD-31" style="rounded=0;orthogonalLoop=1;jettySize=auto;html=1;entryX=0;entryY=0;entryDx=0;entryDy=0;endArrow=none;endFill=0;" edge="1" parent="1" source="tdtCitIDd2ccs7ZmJ2YD-29" target="tdtCitIDd2ccs7ZmJ2YD-26">
          <mxGeometry relative="1" as="geometry" />
        </mxCell>
        <mxCell id="tdtCitIDd2ccs7ZmJ2YD-29" value="puntuacion" style="ellipse;whiteSpace=wrap;html=1;align=center;" vertex="1" parent="1">
          <mxGeometry x="-580" y="660" width="100" height="40" as="geometry" />
        </mxCell>
        <mxCell id="tdtCitIDd2ccs7ZmJ2YD-33" style="rounded=0;orthogonalLoop=1;jettySize=auto;html=1;entryX=1;entryY=0;entryDx=0;entryDy=0;dashed=1;endArrow=none;endFill=0;dashPattern=8 8;" edge="1" parent="1" source="tdtCitIDd2ccs7ZmJ2YD-32" target="tdtCitIDd2ccs7ZmJ2YD-26">
          <mxGeometry relative="1" as="geometry" />
        </mxCell>
        <mxCell id="tdtCitIDd2ccs7ZmJ2YD-32" value="comentario" style="ellipse;whiteSpace=wrap;html=1;align=center;" vertex="1" parent="1">
          <mxGeometry x="-370" y="670" width="100" height="40" as="geometry" />
        </mxCell>
        <mxCell id="tdtCitIDd2ccs7ZmJ2YD-35" style="rounded=0;orthogonalLoop=1;jettySize=auto;html=1;entryX=1;entryY=0.5;entryDx=0;entryDy=0;endArrow=none;endFill=0;" edge="1" parent="1" source="tdtCitIDd2ccs7ZmJ2YD-34" target="tdtCitIDd2ccs7ZmJ2YD-26">
          <mxGeometry relative="1" as="geometry" />
        </mxCell>
        <mxCell id="tdtCitIDd2ccs7ZmJ2YD-34" value="fecha" style="ellipse;whiteSpace=wrap;html=1;align=center;" vertex="1" parent="1">
          <mxGeometry x="-310" y="750" width="100" height="40" as="geometry" />
        </mxCell>
        <mxCell id="tdtCitIDd2ccs7ZmJ2YD-37" style="rounded=0;orthogonalLoop=1;jettySize=auto;html=1;entryX=0;entryY=0.5;entryDx=0;entryDy=0;endArrow=none;endFill=0;" edge="1" parent="1" source="tdtCitIDd2ccs7ZmJ2YD-36" target="tdtCitIDd2ccs7ZmJ2YD-25">
          <mxGeometry relative="1" as="geometry" />
        </mxCell>
        <mxCell id="tdtCitIDd2ccs7ZmJ2YD-36" value="nombre" style="ellipse;whiteSpace=wrap;html=1;align=center;" vertex="1" parent="1">
          <mxGeometry x="-570" y="960" width="100" height="40" as="geometry" />
        </mxCell>
        <mxCell id="tdtCitIDd2ccs7ZmJ2YD-39" style="rounded=0;orthogonalLoop=1;jettySize=auto;html=1;entryX=0.75;entryY=1;entryDx=0;entryDy=0;endArrow=none;endFill=0;" edge="1" parent="1" source="tdtCitIDd2ccs7ZmJ2YD-38" target="tdtCitIDd2ccs7ZmJ2YD-25">
          <mxGeometry relative="1" as="geometry" />
        </mxCell>
        <mxCell id="tdtCitIDd2ccs7ZmJ2YD-38" value="email" style="ellipse;whiteSpace=wrap;html=1;align=center;" vertex="1" parent="1">
          <mxGeometry x="-450" y="960" width="100" height="40" as="geometry" />
        </mxCell>
        <mxCell id="tdtCitIDd2ccs7ZmJ2YD-41" style="rounded=0;orthogonalLoop=1;jettySize=auto;html=1;endArrow=none;endFill=0;" edge="1" parent="1" source="tdtCitIDd2ccs7ZmJ2YD-40" target="tdtCitIDd2ccs7ZmJ2YD-25">
          <mxGeometry relative="1" as="geometry" />
        </mxCell>
        <mxCell id="tdtCitIDd2ccs7ZmJ2YD-40" value="pais" style="ellipse;whiteSpace=wrap;html=1;align=center;" vertex="1" parent="1">
          <mxGeometry x="-330" y="890" width="100" height="40" as="geometry" />
        </mxCell>
        <mxCell id="tdtCitIDd2ccs7ZmJ2YD-42" value="saga" style="whiteSpace=wrap;html=1;align=center;" vertex="1" parent="1">
          <mxGeometry x="40" y="160" width="100" height="40" as="geometry" />
        </mxCell>
        <mxCell id="tdtCitIDd2ccs7ZmJ2YD-44" style="rounded=0;orthogonalLoop=1;jettySize=auto;html=1;exitX=0;exitY=0.75;exitDx=0;exitDy=0;entryX=0;entryY=0.5;entryDx=0;entryDy=0;endArrow=none;endFill=0;" edge="1" parent="1" source="tdtCitIDd2ccs7ZmJ2YD-42" target="tdtCitIDd2ccs7ZmJ2YD-42">
          <mxGeometry relative="1" as="geometry" />
        </mxCell>
        <mxCell id="tdtCitIDd2ccs7ZmJ2YD-46" value="es_secuela_directa" style="shape=rhombus;perimeter=rhombusPerimeter;whiteSpace=wrap;html=1;align=center;" vertex="1" parent="1">
          <mxGeometry x="-190" y="360" width="140" height="60" as="geometry" />
        </mxCell>
        <mxCell id="tdtCitIDd2ccs7ZmJ2YD-49" style="rounded=0;orthogonalLoop=1;jettySize=auto;html=1;exitX=1;exitY=0;exitDx=0;exitDy=0;entryX=0;entryY=0.5;entryDx=0;entryDy=0;endArrow=none;endFill=0;" edge="1" parent="1" source="tdtCitIDd2ccs7ZmJ2YD-47" target="tdtCitIDd2ccs7ZmJ2YD-42">
          <mxGeometry relative="1" as="geometry" />
        </mxCell>
        <mxCell id="tdtCitIDd2ccs7ZmJ2YD-47" value="pertenece" style="shape=rhombus;perimeter=rhombusPerimeter;whiteSpace=wrap;html=1;align=center;" vertex="1" parent="1">
          <mxGeometry x="-170" y="230" width="140" height="60" as="geometry" />
        </mxCell>
        <mxCell id="tdtCitIDd2ccs7ZmJ2YD-50" value="(0:1)" style="text;strokeColor=none;fillColor=none;spacingLeft=4;spacingRight=4;overflow=hidden;rotatable=0;points=[[0,0.5],[1,0.5]];portConstraint=eastwest;fontSize=12;whiteSpace=wrap;html=1;" vertex="1" parent="1">
          <mxGeometry y="160" width="40" height="30" as="geometry" />
        </mxCell>
        <mxCell id="tdtCitIDd2ccs7ZmJ2YD-51" value="(1:n)" style="text;strokeColor=none;fillColor=none;spacingLeft=4;spacingRight=4;overflow=hidden;rotatable=0;points=[[0,0.5],[1,0.5]];portConstraint=eastwest;fontSize=12;whiteSpace=wrap;html=1;" vertex="1" parent="1">
          <mxGeometry x="-290" y="330" width="40" height="30" as="geometry" />
        </mxCell>
        <mxCell id="tdtCitIDd2ccs7ZmJ2YD-52" value="(0:n)" style="text;strokeColor=none;fillColor=none;spacingLeft=4;spacingRight=4;overflow=hidden;rotatable=0;points=[[0,0.5],[1,0.5]];portConstraint=eastwest;fontSize=12;whiteSpace=wrap;html=1;" vertex="1" parent="1">
          <mxGeometry x="-390" y="410" width="40" height="30" as="geometry" />
        </mxCell>
        <mxCell id="tdtCitIDd2ccs7ZmJ2YD-53" value="(0:n)" style="text;strokeColor=none;fillColor=none;spacingLeft=4;spacingRight=4;overflow=hidden;rotatable=0;points=[[0,0.5],[1,0.5]];portConstraint=eastwest;fontSize=12;whiteSpace=wrap;html=1;" vertex="1" parent="1">
          <mxGeometry x="-480" y="860" width="40" height="30" as="geometry" />
        </mxCell>
        <mxCell id="tdtCitIDd2ccs7ZmJ2YD-58" style="edgeStyle=none;shape=connector;rounded=0;orthogonalLoop=1;jettySize=auto;html=1;entryX=0.75;entryY=0;entryDx=0;entryDy=0;strokeColor=default;align=center;verticalAlign=middle;fontFamily=Helvetica;fontSize=11;fontColor=default;labelBackgroundColor=default;endArrow=none;endFill=0;" edge="1" parent="1" source="tdtCitIDd2ccs7ZmJ2YD-54" target="tdtCitIDd2ccs7ZmJ2YD-42">
          <mxGeometry relative="1" as="geometry" />
        </mxCell>
        <mxCell id="tdtCitIDd2ccs7ZmJ2YD-54" value="pais" style="ellipse;whiteSpace=wrap;html=1;align=center;fontFamily=Helvetica;fontSize=11;fontColor=default;labelBackgroundColor=default;" vertex="1" parent="1">
          <mxGeometry x="150" y="80" width="100" height="40" as="geometry" />
        </mxCell>
        <mxCell id="tdtCitIDd2ccs7ZmJ2YD-57" style="edgeStyle=none;shape=connector;rounded=0;orthogonalLoop=1;jettySize=auto;html=1;entryX=0.25;entryY=0;entryDx=0;entryDy=0;strokeColor=default;align=center;verticalAlign=middle;fontFamily=Helvetica;fontSize=11;fontColor=default;labelBackgroundColor=default;endArrow=none;endFill=0;" edge="1" parent="1" source="tdtCitIDd2ccs7ZmJ2YD-55" target="tdtCitIDd2ccs7ZmJ2YD-42">
          <mxGeometry relative="1" as="geometry" />
        </mxCell>
        <mxCell id="tdtCitIDd2ccs7ZmJ2YD-55" value="nombre" style="ellipse;whiteSpace=wrap;html=1;align=center;fontFamily=Helvetica;fontSize=11;fontColor=default;labelBackgroundColor=default;" vertex="1" parent="1">
          <mxGeometry x="-10" y="70" width="100" height="40" as="geometry" />
        </mxCell>
        <mxCell id="tdtCitIDd2ccs7ZmJ2YD-59" style="edgeStyle=none;shape=connector;rounded=0;orthogonalLoop=1;jettySize=auto;html=1;entryX=1;entryY=0.5;entryDx=0;entryDy=0;strokeColor=default;align=center;verticalAlign=middle;fontFamily=Helvetica;fontSize=11;fontColor=default;labelBackgroundColor=default;endArrow=none;endFill=0;" edge="1" parent="1" source="tdtCitIDd2ccs7ZmJ2YD-56" target="tdtCitIDd2ccs7ZmJ2YD-42">
          <mxGeometry relative="1" as="geometry" />
        </mxCell>
        <mxCell id="tdtCitIDd2ccs7ZmJ2YD-56" value="merchandising" style="ellipse;whiteSpace=wrap;html=1;align=center;fontFamily=Helvetica;fontSize=11;fontColor=default;labelBackgroundColor=default;" vertex="1" parent="1">
          <mxGeometry x="190" y="160" width="100" height="40" as="geometry" />
        </mxCell>
        <mxCell id="tdtCitIDd2ccs7ZmJ2YD-65" style="edgeStyle=none;shape=connector;rounded=0;orthogonalLoop=1;jettySize=auto;html=1;entryX=0;entryY=0;entryDx=0;entryDy=0;strokeColor=default;align=center;verticalAlign=middle;fontFamily=Helvetica;fontSize=11;fontColor=default;labelBackgroundColor=default;endArrow=none;endFill=0;" edge="1" parent="1" source="tdtCitIDd2ccs7ZmJ2YD-63" target="tdtCitIDd2ccs7ZmJ2YD-71">
          <mxGeometry relative="1" as="geometry">
            <mxPoint x="-575.8639690429613" y="267.58035789341875" as="targetPoint" />
          </mxGeometry>
        </mxCell>
        <mxCell id="tdtCitIDd2ccs7ZmJ2YD-63" value="modo" style="whiteSpace=wrap;html=1;align=center;fontFamily=Helvetica;fontSize=11;fontColor=default;labelBackgroundColor=default;" vertex="1" parent="1">
          <mxGeometry x="-720" y="200" width="100" height="40" as="geometry" />
        </mxCell>
        <mxCell id="tdtCitIDd2ccs7ZmJ2YD-66" style="edgeStyle=none;shape=connector;rounded=0;orthogonalLoop=1;jettySize=auto;html=1;strokeColor=default;align=center;verticalAlign=middle;fontFamily=Helvetica;fontSize=11;fontColor=default;labelBackgroundColor=default;endArrow=none;endFill=0;" edge="1" parent="1" target="tdtCitIDd2ccs7ZmJ2YD-2">
          <mxGeometry relative="1" as="geometry">
            <mxPoint x="-503.77921325410557" y="302.2340840161917" as="sourcePoint" />
          </mxGeometry>
        </mxCell>
        <mxCell id="tdtCitIDd2ccs7ZmJ2YD-67" value="(1:n)" style="text;strokeColor=none;fillColor=none;spacingLeft=4;spacingRight=4;overflow=hidden;rotatable=0;points=[[0,0.5],[1,0.5]];portConstraint=eastwest;fontSize=12;whiteSpace=wrap;html=1;" vertex="1" parent="1">
          <mxGeometry x="-640" y="240" width="40" height="30" as="geometry" />
        </mxCell>
        <mxCell id="tdtCitIDd2ccs7ZmJ2YD-69" value="(0:m)" style="text;strokeColor=none;fillColor=none;spacingLeft=4;spacingRight=4;overflow=hidden;rotatable=0;points=[[0,0.5],[1,0.5]];portConstraint=eastwest;fontSize=12;whiteSpace=wrap;html=1;" vertex="1" parent="1">
          <mxGeometry x="-430" y="350" width="40" height="30" as="geometry" />
        </mxCell>
        <mxCell id="tdtCitIDd2ccs7ZmJ2YD-73" style="edgeStyle=none;shape=connector;rounded=0;orthogonalLoop=1;jettySize=auto;html=1;entryX=0;entryY=1;entryDx=0;entryDy=0;strokeColor=default;align=center;verticalAlign=middle;fontFamily=Helvetica;fontSize=11;fontColor=default;labelBackgroundColor=default;endArrow=none;endFill=0;exitX=1;exitY=0.5;exitDx=0;exitDy=0;" edge="1" parent="1" source="tdtCitIDd2ccs7ZmJ2YD-70" target="tdtCitIDd2ccs7ZmJ2YD-72">
          <mxGeometry relative="1" as="geometry" />
        </mxCell>
        <mxCell id="tdtCitIDd2ccs7ZmJ2YD-70" value="DLC" style="whiteSpace=wrap;html=1;align=center;fontFamily=Helvetica;fontSize=11;fontColor=default;labelBackgroundColor=default;" vertex="1" parent="1">
          <mxGeometry x="-720" y="490" width="100" height="40" as="geometry" />
        </mxCell>
        <mxCell id="tdtCitIDd2ccs7ZmJ2YD-71" value="tiene" style="shape=rhombus;perimeter=rhombusPerimeter;whiteSpace=wrap;html=1;align=center;" vertex="1" parent="1">
          <mxGeometry x="-600" y="260" width="140" height="60" as="geometry" />
        </mxCell>
        <mxCell id="tdtCitIDd2ccs7ZmJ2YD-74" style="edgeStyle=none;shape=connector;rounded=0;orthogonalLoop=1;jettySize=auto;html=1;entryX=0;entryY=0.75;entryDx=0;entryDy=0;strokeColor=default;align=center;verticalAlign=middle;fontFamily=Helvetica;fontSize=11;fontColor=default;labelBackgroundColor=default;endArrow=none;endFill=0;" edge="1" parent="1" source="tdtCitIDd2ccs7ZmJ2YD-72" target="tdtCitIDd2ccs7ZmJ2YD-2">
          <mxGeometry relative="1" as="geometry" />
        </mxCell>
        <mxCell id="tdtCitIDd2ccs7ZmJ2YD-72" value="posee" style="shape=rhombus;perimeter=rhombusPerimeter;whiteSpace=wrap;html=1;align=center;" vertex="1" parent="1">
          <mxGeometry x="-580" y="430" width="140" height="60" as="geometry" />
        </mxCell>
        <mxCell id="tdtCitIDd2ccs7ZmJ2YD-75" value="(0:n)" style="text;strokeColor=none;fillColor=none;spacingLeft=4;spacingRight=4;overflow=hidden;rotatable=0;points=[[0,0.5],[1,0.5]];portConstraint=eastwest;fontSize=12;whiteSpace=wrap;html=1;" vertex="1" parent="1">
          <mxGeometry x="-620" y="510" width="40" height="30" as="geometry" />
        </mxCell>
        <mxCell id="tdtCitIDd2ccs7ZmJ2YD-77" value="(1:1)" style="text;strokeColor=none;fillColor=none;spacingLeft=4;spacingRight=4;overflow=hidden;rotatable=0;points=[[0,0.5],[1,0.5]];portConstraint=eastwest;fontSize=12;whiteSpace=wrap;html=1;" vertex="1" parent="1">
          <mxGeometry x="-430" y="390" width="40" height="30" as="geometry" />
        </mxCell>
      </root>
    </mxGraphModel>
  </diagram>
</mxfile>
